<svg width="916" height="184" viewBox="0 0 916 184" fill="none" xmlns="http://www.w3.org/2000/svg">
    <path d="M183.562 48.7578V183.561H0L66.7201 109.709H127.907L183.562 48.7578Z"/>
    <path d="M264.61 64.6634H231.061V46.0554H320.527V64.6634H286.977V151.1H264.61V64.6634Z"/>
    <path d="M370.787 152.901C364.823 152.901 359.256 152.251 354.087 150.95C348.918 149.65 344.395 147.549 340.518 144.648C336.641 141.746 333.51 137.995 331.124 133.393C328.738 128.791 327.297 123.188 326.8 116.586H350.061C350.856 122.288 353.093 126.64 356.771 129.641C360.449 132.542 365.121 133.993 370.787 133.993C373.571 133.993 376.255 133.543 378.839 132.643C381.424 131.642 383.76 130.091 385.847 127.991C388.034 125.79 389.824 122.938 391.215 119.437C392.706 115.935 393.701 111.634 394.198 106.531H358.113V88.8237H394.048C393.054 79.6198 390.42 73.067 386.146 69.1653C381.971 65.1636 376.851 63.1627 370.787 63.1627C365.419 63.1627 360.896 64.5633 357.218 67.3645C353.54 70.1657 351.154 74.5676 350.061 80.5702H326.8C327.197 74.2675 328.589 68.8152 330.975 64.2132C333.46 59.6112 336.641 55.8596 340.518 52.9584C344.494 49.9571 349.067 47.7561 354.236 46.3555C359.405 44.9549 364.922 44.2546 370.787 44.2546C377.448 44.2546 383.611 45.3051 389.277 47.406C395.042 49.4068 400.013 52.5582 404.188 56.86C408.462 61.0618 411.793 66.4642 414.178 73.067C416.564 79.5698 417.757 87.3231 417.757 96.327V99.3282C417.757 108.932 416.514 117.136 414.029 123.939C411.643 130.742 408.313 136.294 404.039 140.596C399.864 144.798 394.893 147.899 389.128 149.9C383.462 151.901 377.348 152.901 370.787 152.901Z"/>
    <path d="M437.17 46.0554H459.537V88.8237H468.484L501.884 46.0554H526.636L485.631 95.7267L528.128 151.1H501.884L468.484 105.331H459.537V151.1H437.17V46.0554Z"/>
    <path d="M535.577 99.7784H583.293V118.386H535.577V99.7784Z"/>
    <path d="M620.203 64.6634H586.653V46.0554H676.119V64.6634H642.57V151.1H620.203V64.6634Z"/>
    <path d="M711.842 152.901C706.474 152.901 701.354 152.101 696.483 150.5C691.712 148.799 687.537 146.248 683.958 142.847C680.38 139.445 677.546 135.194 675.459 130.091C673.371 124.989 672.328 118.987 672.328 112.084V109.082C672.328 102.58 673.371 96.8772 675.459 91.9751C677.546 87.073 680.38 82.9712 683.958 79.6698C687.537 76.3684 691.712 73.9174 696.483 72.3167C701.354 70.6159 706.474 69.7656 711.842 69.7656C717.21 69.7656 722.279 70.6159 727.051 72.3167C731.822 73.9174 735.998 76.3684 739.576 79.6698C743.254 82.9712 746.137 87.073 748.225 91.9751C750.312 96.8772 751.356 102.58 751.356 109.082V112.084C751.356 118.887 750.312 124.839 748.225 129.941C746.137 135.044 743.254 139.295 739.576 142.697C735.998 146.098 731.822 148.649 727.051 150.35C722.279 152.051 717.21 152.901 711.842 152.901ZM711.842 136.094C717.409 136.094 722.031 134.093 725.709 130.091C729.486 126.09 731.375 120.087 731.375 112.084V109.082C731.375 101.779 729.486 96.2269 725.709 92.4253C722.031 88.5236 717.409 86.5728 711.842 86.5728C706.176 86.5728 701.503 88.5236 697.825 92.4253C694.147 96.2269 692.308 101.779 692.308 109.082V112.084C692.308 120.187 694.147 126.24 697.825 130.241C701.503 134.143 706.176 136.094 711.842 136.094Z"/>
    <path d="M765.463 71.5663H783.804V83.2714C785.792 79.6698 788.923 76.5185 793.198 73.8173C797.472 71.1161 802.89 69.7656 809.451 69.7656C819.988 69.7656 828.189 73.067 834.054 79.6698C840.018 86.1726 843 95.9768 843 109.082V112.084C843 125.79 839.969 136.044 833.905 142.847C827.94 149.55 819.789 152.901 809.451 152.901C804.083 152.901 799.311 151.751 795.136 149.45C791.06 147.049 787.73 143.947 785.146 140.146V181.113H765.463V71.5663ZM804.828 136.094C809.997 136.094 814.322 134.143 817.801 130.241C821.28 126.24 823.02 120.187 823.02 112.084V109.082C823.02 101.579 821.33 95.9768 817.95 92.2752C814.57 88.4736 810.196 86.5728 804.828 86.5728C799.162 86.5728 794.44 88.2235 790.663 91.5249C786.985 94.7263 785.146 99.5784 785.146 106.081V115.085C785.146 122.188 786.935 127.49 790.514 130.992C794.192 134.393 798.963 136.094 804.828 136.094Z"/>
    <path d="M858.692 71.5663H915.354V88.0734H878.375V151.1H858.692V71.5663Z"/>
    <g fill="white">
        <path d="M0 0.00439453H184L182.231 2.00984H0V0.00439453Z"/>
        <path d="M0 1.00684H2.00545V135.873L0 137.995V1.00684Z"/>
        <path d="M55.1523 73.7048H116.319L117.321 75.7103H55.1523V73.7048Z"/>
        <path d="M2.00391 132.866L55.1483 73.7048L55.6823 75.683L2.00391 135.874V132.866Z"/>
        <path d="M116.314 73.7047L179.486 2.00984L183.998 0.00439453L117.317 75.7101L116.314 73.7047Z"/>
    </g>
    <path d="M1.52588e-05 134.803L1.52588e-05 0L183.562 0L116.842 73.852L55.655 73.852L1.52588e-05 134.803Z" class="logo-r_t"/>
</svg>

